<?xml version="1.0" standalone="no"?>
<!DOCTYPE svg PUBLIC "-//W3C//DTD SVG 20010904//EN"
 "http://www.w3.org/TR/2001/REC-SVG-20010904/DTD/svg10.dtd">
<svg version="1.0" xmlns="http://www.w3.org/2000/svg"
 width="500.000000pt" height="500.000000pt" viewBox="0 0 500.000000 500.000000"
 preserveAspectRatio="xMidYMid meet">

<g transform="translate(0.000000,500.000000) scale(0.100000,-0.100000)"
fill="#000000" stroke="#1C274C">
<path d="M2310 4990 c-646 -42 -1295 -374 -1716 -878 -485 -581 -680 -1300
-553 -2042 89 -523 369 -1041 751 -1391 202 -185 351 -289 588 -408 478 -242
995 -320 1535 -231 629 102 1189 443 1580 960 570 753 662 1771 236 2615 -47
94 -117 216 -154 272 -428 640 -1131 1048 -1902 1103 -153 11 -193 11 -365 0z
m455 -70 c182 -20 442 -83 603 -146 121 -47 345 -162 452 -232 881 -576 1297
-1636 1038 -2646 -108 -423 -325 -801 -639 -1115 -555 -555 -1325 -805 -2104
-685 -579 90 -1138 414 -1510 878 -228 285 -410 662 -484 1007 -55 256 -68
618 -31 867 101 691 493 1300 1090 1695 124 82 363 200 508 251 168 59 408
113 572 129 82 8 422 6 505 -3z"/>
<path d="M1565 3570 l-355 -355 0 -931 c0 -757 3 -939 14 -976 28 -94 106
-175 208 -216 39 -16 126 -17 1023 -20 606 -2 1004 1 1043 7 117 18 205 80
259 183 l28 53 0 1181 0 1181 -35 69 c-25 49 -49 79 -85 106 -91 70 -62 67
-948 70 l-797 3 -355 -355z m1998 277 c52 -24 114 -83 140 -131 l22 -41 3
-1160 c2 -1063 1 -1164 -14 -1204 -22 -58 -76 -116 -138 -149 l-51 -27 -1025
0 -1025 0 -49 24 c-61 30 -113 82 -140 140 -21 46 -21 52 -24 958 l-3 913 348
2 348 3 3 348 2 348 783 -3 c724 -3 785 -4 820 -21z m-1663 -322 l0 -295 -297
0 -298 0 295 295 c162 162 296 295 297 295 2 0 3 -133 3 -295z"/>
<path d="M2430 3329 c-138 -15 -255 -73 -360 -179 -131 -130 -183 -273 -178
-478 l3 -107 149 -3 c101 -2 153 1 162 9 10 8 14 39 14 114 0 97 2 107 33 167
26 50 45 71 91 103 57 40 59 40 149 40 105 0 142 -13 202 -73 104 -103 110
-266 14 -376 -65 -74 -104 -89 -242 -96 -89 -4 -120 -9 -127 -20 -11 -16 -14
-578 -4 -604 5 -14 29 -16 164 -16 135 0 159 2 164 16 3 9 6 82 6 162 l0 147
88 40 c70 32 101 54 163 115 86 85 120 138 156 243 127 373 -139 768 -537 799
-25 2 -74 1 -110 -3z m220 -76 c244 -66 413 -304 397 -558 -14 -230 -160 -419
-382 -495 l-50 -17 -5 -159 -5 -159 -105 0 -105 0 -3 90 c-2 50 0 167 3 261
l7 172 97 4 c73 3 107 9 142 26 74 36 125 87 161 160 29 59 33 76 33 147 0 71
-4 88 -33 147 -126 256 -490 252 -608 -6 -21 -46 -28 -79 -32 -153 l-5 -93
-103 0 -104 0 0 83 c1 386 336 650 700 550z"/>
<path d="M2435 1659 c-84 -31 -138 -107 -138 -194 0 -114 91 -205 203 -205
198 0 277 258 114 373 -46 32 -129 44 -179 26z m135 -70 c129 -73 78 -269 -70
-269 -82 0 -143 62 -143 146 0 111 115 178 213 123z"/>
</g>
</svg>
